<svg
  width="32"
  height="32"
  viewBox="0 0 32 32"
  fill="none"
  xmlns="http://www.w3.org/2000/svg"
>
  <g clipPath="url(#clip0_30_76)">
    <path
      d="M28 0H4C1.79086 0 0 1.79086 0 4V28C0 30.2091 1.79086 32 4 32H28C30.2091 32 32 30.2091 32 28V4C32 1.79086 30.2091 0 28 0Z"
      fill="#18B85B"
    />
    <path
      d="M13.094 25.3638C12.6146 25.3638 12.1648 25.3253 11.7446 25.2483C11.3303 25.1773 10.987 25.0855 10.7148 24.973L11.567 22.1499C12.0109 22.286 12.4104 22.36 12.7655 22.3718C13.1266 22.3837 13.4373 22.3008 13.6977 22.1232C13.964 21.9457 14.1801 21.6438 14.3458 21.2177L14.5677 20.6406L9.67603 6.61365H13.6533L16.4764 16.6279H16.6185L19.4683 6.61365H23.4722L18.1721 21.7237C17.9176 22.4576 17.5714 23.0968 17.1334 23.6413C16.7014 24.1918 16.1539 24.615 15.491 24.9109C14.8282 25.2128 14.0292 25.3638 13.094 25.3638Z"
      fill="white"
    />
  </g>
  <defs>
    <clipPath id="clip0_30_76">
      <rect width="32" height="32" fill="white" />
    </clipPath>
  </defs>
</svg>
